<svg width="140" height="140" viewBox="0 0 140 140" fill="none" xmlns="http://www.w3.org/2000/svg">
<circle cx="70" cy="70" r="69.6416" stroke="white" stroke-width="0.716751"/>
<path d="M61.5005 123.027L59.7348 131.666L54.5231 130.59L54.7128 129.662L58.8788 130.522L59.4754 127.603L55.5793 126.799L55.7689 125.871L59.6651 126.675L60.2651 123.739L56.0317 122.865L56.2213 121.937L61.5005 123.027Z" fill="white"/>
<path d="M45.8784 125.201C45.7662 125.626 45.8365 126.018 46.0893 126.379C46.342 126.739 46.7164 127.018 47.2123 127.216C47.5749 127.36 47.9154 127.428 48.2337 127.419C48.5493 127.409 48.8237 127.331 49.0568 127.186C49.2873 127.04 49.4542 126.836 49.5574 126.575C49.6439 126.356 49.6662 126.147 49.6243 125.948C49.5788 125.751 49.494 125.567 49.3697 125.397C49.2445 125.229 49.1044 125.076 48.9494 124.937C48.7934 124.801 48.6473 124.682 48.5112 124.582L47.7678 124.026C47.5766 123.885 47.3699 123.713 47.1476 123.51C46.9226 123.306 46.7239 123.07 46.5514 122.804C46.3752 122.539 46.2606 122.243 46.2076 121.916C46.1546 121.589 46.204 121.233 46.3557 120.848C46.5307 120.405 46.8047 120.051 47.1779 119.786C47.5484 119.519 47.9966 119.369 48.5224 119.335C49.0456 119.299 49.6218 119.407 50.251 119.658C50.8376 119.892 51.3081 120.189 51.6626 120.55C52.0143 120.909 52.2459 121.307 52.3574 121.744C52.4662 122.18 52.4481 122.629 52.303 123.09L51.2792 122.682C51.3748 122.361 51.3719 122.064 51.2707 121.788C51.1658 121.515 50.9929 121.273 50.7519 121.062C50.5072 120.854 50.2222 120.684 49.897 120.555C49.5183 120.404 49.1542 120.33 48.8044 120.332C48.4536 120.338 48.1465 120.416 47.883 120.568C47.6185 120.722 47.4273 120.948 47.3092 121.247C47.2018 121.52 47.1903 121.771 47.2748 122.003C47.3593 122.234 47.5045 122.453 47.7103 122.659C47.9161 122.864 48.1472 123.065 48.4035 123.259L49.2975 123.95C49.8647 124.389 50.2675 124.854 50.5059 125.345C50.7443 125.835 50.7544 126.357 50.5362 126.909C50.355 127.369 50.0729 127.72 49.6901 127.963C49.3035 128.207 48.8622 128.34 48.3661 128.362C47.8663 128.385 47.3551 128.292 46.8325 128.084C46.3046 127.873 45.8728 127.592 45.537 127.238C45.2002 126.888 44.9761 126.502 44.8647 126.08C44.7506 125.658 44.7686 125.237 44.9186 124.818L45.8784 125.201Z" fill="white"/>
<path d="M44.0658 116.902L39.4136 124.392L36.8898 122.809C36.3038 122.441 35.8907 122.035 35.6504 121.589C35.4062 121.144 35.3055 120.687 35.3482 120.215C35.3909 119.744 35.5492 119.288 35.8234 118.846C36.0975 118.405 36.4365 118.06 36.8406 117.812C37.2422 117.563 37.6957 117.447 38.2009 117.466C38.7047 117.487 39.2471 117.68 39.8282 118.045L41.6372 119.18L41.1375 119.985L39.3577 118.868C38.9565 118.616 38.5912 118.484 38.2617 118.47C37.9322 118.456 37.6394 118.534 37.383 118.701C37.1228 118.87 36.8995 119.105 36.7133 119.405C36.527 119.704 36.4163 120.008 36.3813 120.314C36.3438 120.62 36.4062 120.916 36.5685 121.204C36.7293 121.495 37.0127 121.768 37.4187 122.023L39.0089 123.02L43.1613 116.334L44.0658 116.902Z" fill="white"/>
<path d="M36.1914 111.46L30.2726 117.996L28.0742 115.985C27.5659 115.52 27.2277 115.051 27.0596 114.578C26.8895 114.107 26.8629 113.649 26.9797 113.204C27.0966 112.758 27.3294 112.343 27.6782 111.958C28.0269 111.573 28.4145 111.303 28.8409 111.148C29.2674 110.994 29.7197 110.98 30.1979 111.106C30.6741 111.234 31.1643 111.529 31.6683 111.99L33.4473 113.618L32.8 114.332L31.0464 112.728C30.699 112.411 30.3732 112.206 30.069 112.114C29.7626 112.021 29.477 112.024 29.2121 112.124C28.9432 112.224 28.6903 112.405 28.4533 112.667C28.2163 112.929 28.0579 113.202 27.9781 113.487C27.8982 113.772 27.9171 114.065 28.0347 114.367C28.1503 114.671 28.3839 114.984 28.7355 115.306L30.1205 116.573L35.4036 110.739L36.1914 111.46ZM30.4701 111.594L31.5279 107.193L32.4428 108.03L31.3597 112.408L30.4701 111.594Z" fill="white"/>
<path d="M29.4184 104.668L22.4513 110.073L19.2101 105.852L19.9585 105.271L22.5493 108.645L24.9035 106.819L22.4805 103.664L23.2289 103.083L25.6519 106.238L28.0197 104.402L25.3869 100.973L26.1353 100.393L29.4184 104.668Z" fill="white"/>
<path d="M16.1636 96.0983C15.8013 96.3472 15.5984 96.6908 15.5547 97.1289C15.511 97.567 15.6125 98.0228 15.8591 98.4964C16.0395 98.8426 16.2531 99.1161 16.5002 99.317C16.7458 99.5153 17.0043 99.6356 17.2754 99.6777C17.5453 99.7174 17.8047 99.6717 18.0536 99.5408C18.2619 99.4312 18.4152 99.2873 18.5133 99.1092C18.6076 98.9298 18.6632 98.7352 18.68 98.5252C18.6944 98.3166 18.6882 98.109 18.6615 97.9025C18.6323 97.6973 18.599 97.5121 18.5615 97.347L18.3612 96.4404C18.3085 96.2087 18.2642 95.9434 18.2282 95.6444C18.1909 95.343 18.1939 95.0349 18.2372 94.7202C18.2765 94.4044 18.3828 94.1052 18.5561 93.8227C18.7293 93.5402 18.9989 93.3027 19.3647 93.1102C19.7863 92.8884 20.225 92.7986 20.6808 92.841C21.1352 92.8809 21.5728 93.0593 21.9936 93.3763C22.413 93.6908 22.7792 94.1484 23.0921 94.7492C23.3838 95.3093 23.5462 95.8417 23.5794 96.3464C23.6112 96.8486 23.5267 97.3017 23.3261 97.7057C23.1242 98.1071 22.8178 98.4353 22.4069 98.6904L21.8978 97.7128C22.1792 97.5323 22.3713 97.3047 22.4742 97.0301C22.5732 96.7542 22.6001 96.4578 22.5549 96.1411C22.5058 95.8231 22.4004 95.5088 22.2386 95.1983C22.0503 94.8368 21.8229 94.5429 21.5562 94.3167C21.287 94.0919 21.0032 93.9509 20.7048 93.8938C20.4039 93.8381 20.1112 93.885 19.8267 94.0347C19.5676 94.171 19.3946 94.3545 19.3076 94.5852C19.2206 94.8158 19.188 95.0762 19.2097 95.3665C19.2314 95.6567 19.2757 95.9593 19.3427 96.2743L19.5696 97.381C19.7125 98.0842 19.7142 98.6995 19.5747 99.227C19.4352 99.7545 19.1025 100.157 18.5767 100.433C18.1398 100.663 17.6971 100.745 17.2486 100.679C16.7963 100.613 16.3752 100.425 15.9854 100.118C15.5916 99.8096 15.2648 99.4058 15.005 98.9069C14.7424 98.4028 14.5992 97.9073 14.5754 97.4204C14.549 96.9348 14.6311 96.4959 14.8217 96.1037C15.011 95.709 15.2991 95.4017 15.6862 95.1818L16.1636 96.0983Z" fill="white"/>
<path d="M12.4521 85.9726C12.051 86.1522 11.7898 86.4535 11.6684 86.8765C11.5471 87.2995 11.5654 87.7659 11.7234 88.2759C11.8389 88.6488 12.0003 88.9562 12.2075 89.1981C12.4138 89.4373 12.6466 89.6021 12.906 89.6923C13.1645 89.7798 13.4279 89.7816 13.6964 89.6976C13.921 89.6273 14.0976 89.5134 14.2261 89.3559C14.351 89.1965 14.4405 89.015 14.4947 88.8116C14.5461 88.6091 14.5772 88.4038 14.5879 88.196C14.5959 87.9889 14.5962 87.8009 14.5889 87.6317L14.5539 86.7043C14.5435 86.4669 14.5473 86.198 14.5654 85.8976C14.5827 85.5945 14.6407 85.2921 14.7396 84.9904C14.8349 84.6869 14.9931 84.4119 15.2141 84.1652C15.4352 83.9186 15.743 83.7335 16.1374 83.6101C16.5922 83.4677 17.04 83.4584 17.481 83.5821C17.9211 83.703 18.3199 83.9571 18.6773 84.3445C19.0339 84.7292 19.3124 85.245 19.5129 85.8921C19.6997 86.4953 19.7643 87.048 19.7066 87.5503C19.648 88.0499 19.4839 88.4802 19.2141 88.8413C18.9435 89.1997 18.5832 89.4674 18.1332 89.6443L17.807 88.5915C18.1163 88.4646 18.3461 88.2754 18.4966 88.0238C18.6434 87.7703 18.7229 87.4838 18.735 87.1641C18.7436 86.8427 18.6961 86.5147 18.5925 86.1802C18.4718 85.7908 18.3005 85.461 18.0785 85.1906C17.8538 84.9211 17.5997 84.7314 17.3163 84.6216C17.0301 84.5127 16.7336 84.5062 16.4268 84.6022C16.1474 84.6897 15.9442 84.839 15.8173 85.0501C15.6905 85.2613 15.6117 85.5115 15.5811 85.8008C15.5506 86.0901 15.5401 86.3956 15.5496 86.7175L15.5749 87.8464C15.5898 88.5636 15.4813 89.169 15.2496 89.6626C15.0179 90.1562 14.6185 90.4917 14.0515 90.6692C13.5803 90.8166 13.13 90.8178 12.7003 90.6725C12.2671 90.5254 11.8861 90.2657 11.5574 89.8933C11.2251 89.5191 10.9757 89.0633 10.8092 88.5259C10.641 87.9831 10.5888 87.4701 10.6524 86.987C10.7134 86.5047 10.8727 86.0879 11.1305 85.7366C11.3873 85.3825 11.726 85.1321 12.1463 84.9855L12.4521 85.9726Z" fill="white"/>
<path d="M12.5249 72.4522C13.4491 72.3488 14.2663 72.4263 14.9765 72.6847C15.6867 72.9432 16.2566 73.343 16.6862 73.8841C17.1158 74.4252 17.372 75.0695 17.4548 75.817C17.5376 76.5644 17.4287 77.2496 17.1281 77.8724C16.8274 78.4953 16.359 79.0113 15.7228 79.4204C15.0866 79.8296 14.3063 80.0858 13.3821 80.1893C12.4579 80.2927 11.6407 80.2152 10.9305 79.9568C10.2203 79.6983 9.65043 79.2986 9.22082 78.7574C8.79122 78.2163 8.53501 77.572 8.45219 76.8246C8.36938 76.0771 8.47829 75.3919 8.77893 74.7691C9.07958 74.1462 9.548 73.6302 10.1842 73.2211C10.8204 72.812 11.6007 72.5557 12.5249 72.4522ZM12.6387 73.4793C11.8799 73.5642 11.2536 73.7628 10.7597 74.0752C10.2655 74.3846 9.90818 74.7698 9.68777 75.2306C9.46705 75.6885 9.38608 76.1828 9.44487 76.7135C9.50367 77.2441 9.691 77.7098 10.0069 78.1106C10.3224 78.5085 10.7553 78.8052 11.3054 79.0007C11.8552 79.1933 12.5095 79.2472 13.2683 79.1622C14.0271 79.0773 14.6536 78.8801 15.1478 78.5706C15.6417 78.2583 15.999 77.8732 16.2197 77.4152C16.4401 76.9544 16.5209 76.4587 16.4621 75.9281C16.4033 75.3974 16.2162 74.9331 15.9006 74.5352C15.5847 74.1344 15.1519 73.8377 14.6021 73.6451C14.0519 73.4496 13.3974 73.3944 12.6387 73.4793Z" fill="white"/>
<path d="M17.5573 62.4557L8.93037 60.6311L9.14918 59.586L12.9908 60.3985L13.9543 55.7967L10.1126 54.9842L10.3315 53.939L18.9583 55.7636L18.7395 56.8087L14.881 55.9926L13.9176 60.5945L17.7761 61.4106L17.5573 62.4557Z" fill="white"/>
<path d="M19.097 43.4617C19.9496 43.8331 20.6199 44.3083 21.108 44.8872C21.596 45.4662 21.8925 46.0978 21.9975 46.7822C22.1024 47.4667 22.006 48.1541 21.7082 48.8447C21.4104 49.5353 20.9772 50.076 20.4084 50.467C19.8397 50.8579 19.1784 51.0723 18.4244 51.1101C17.6703 51.148 16.867 50.9812 16.0144 50.6098C15.1618 50.2383 14.4915 49.7632 14.0035 49.1842C13.5154 48.6053 13.2189 47.9737 13.114 47.2892C13.009 46.6048 13.1054 45.9173 13.4032 45.2268C13.701 44.5362 14.1343 43.9955 14.703 43.6045C15.2717 43.2136 15.933 42.9992 16.6871 42.9613C17.4411 42.9235 18.2444 43.0903 19.097 43.4617ZM18.6878 44.4106C17.9878 44.1056 17.3465 43.9656 16.7638 43.9904C16.1822 44.0125 15.6819 44.1687 15.2629 44.4589C14.845 44.7465 14.5304 45.1355 14.319 45.6257C14.1076 46.1159 14.0397 46.6139 14.1154 47.1197C14.1923 47.6228 14.4209 48.0965 14.8013 48.5409C15.1829 48.9826 15.7236 49.356 16.4236 49.6609C17.1236 49.9658 17.7644 50.1072 18.346 50.0851C18.9287 50.0603 19.429 49.9041 19.8468 49.6165C20.2658 49.3262 20.581 48.936 20.7924 48.4458C21.0039 47.9555 21.0711 47.4588 20.9943 46.9557C20.9185 46.45 20.6899 45.9762 20.3084 45.5345C19.928 45.0902 19.3878 44.7155 18.6878 44.4106Z" fill="white"/>
<path d="M20.9397 32.569L21.5498 31.6927L26.3252 35.0514C26.8183 35.3982 27.1773 35.8244 27.4023 36.3301C27.6266 36.8318 27.7035 37.3719 27.6329 37.9504C27.5601 38.5273 27.326 39.0996 26.9307 39.6673C26.5355 40.235 26.0807 40.652 25.5664 40.9185C25.0498 41.1833 24.5178 41.2968 23.9704 41.2592C23.4222 41.2176 22.9017 41.0234 22.4086 40.6767L17.6332 37.3179L18.2434 36.4416L22.9483 39.7508C23.3005 39.9985 23.668 40.1412 24.051 40.179C24.4316 40.2151 24.8006 40.1447 25.158 39.968C25.5147 39.7872 25.8332 39.4954 26.1137 39.0926C26.3941 38.6898 26.5578 38.289 26.6045 37.8903C26.649 37.4899 26.5883 37.1174 26.4226 36.7727C26.2561 36.4241 25.9968 36.1259 25.6447 35.8782L20.9397 32.569Z" fill="white"/>
<path d="M30.2401 25.7315C29.9004 25.4533 29.5152 25.3555 29.0846 25.4381C28.654 25.5207 28.2474 25.7481 27.8648 26.1205C27.585 26.3927 27.3841 26.6764 27.2618 26.9715C27.1417 27.2647 27.0997 27.5479 27.1357 27.8212C27.1739 28.0924 27.2905 28.3294 27.4857 28.532C27.649 28.7015 27.8295 28.8082 28.0272 28.8521C28.225 28.8919 28.4265 28.8901 28.6317 28.8466C28.8349 28.801 29.0313 28.736 29.221 28.6516C29.4087 28.5651 29.5761 28.4803 29.7232 28.3972L30.5323 27.9463C30.7387 27.8296 30.9795 27.7113 31.2548 27.5917C31.5321 27.47 31.8271 27.3852 32.1397 27.3373C32.4523 27.2854 32.7679 27.3027 33.0864 27.3893C33.4049 27.4758 33.7076 27.668 33.9943 27.9656C34.3249 28.3088 34.5341 28.706 34.622 29.1571C34.7119 29.6063 34.6648 30.0787 34.4806 30.5743C34.2985 31.0679 33.9647 31.5509 33.4792 32.0233C33.0266 32.4637 32.5641 32.7716 32.0915 32.9472C31.621 33.1207 31.1646 33.1682 30.7225 33.0899C30.2824 33.0095 29.8827 32.8077 29.5235 32.4844L30.3134 31.7157C30.565 31.9355 30.8364 32.0559 31.1276 32.0769C31.4189 32.0938 31.7094 32.0354 31.9991 31.9017C32.2888 31.7639 32.5592 31.5729 32.8101 31.3287C33.1022 31.0445 33.3187 30.7417 33.4596 30.4204C33.5984 30.097 33.6531 29.7835 33.6236 29.4798C33.5921 29.174 33.4648 28.9054 33.2418 28.6739C33.0387 28.463 32.8148 28.3485 32.5701 28.3303C32.3254 28.3121 32.0675 28.3547 31.7966 28.4582C31.5256 28.5617 31.2492 28.6905 30.9673 28.8447L29.9746 29.3781C29.3435 29.7159 28.7565 29.8926 28.2136 29.9082C27.6707 29.9239 27.1931 29.7177 26.7809 29.2898C26.4384 28.9342 26.2354 28.5311 26.1718 28.0803C26.1083 27.6255 26.1684 27.1665 26.352 26.7035C26.5357 26.2363 26.8292 25.8066 27.2324 25.4143C27.6397 25.0179 28.0724 24.739 28.5306 24.5775C28.9868 24.4139 29.4289 24.3682 29.857 24.4402C30.2872 24.5102 30.6617 24.7005 30.9806 25.0109L30.2401 25.7315Z" fill="white"/>
<path d="M38.5334 27.4738L33.6142 20.1557L38.0168 17.1662L38.5452 17.9524L35.026 20.342L36.6882 22.8147L39.9794 20.5799L40.5078 21.366L37.2166 23.6008L38.8883 26.0878L42.4645 23.6595L42.9929 24.4456L38.5334 27.4738Z" fill="white"/>
<path d="M49.0663 12.8861L48.7855 11.9815L55.0959 10.0029L55.3767 10.9076L52.7309 11.7371L55.0639 19.2539L54.0451 19.5733L51.712 12.0566L49.0663 12.8861Z" fill="white"/>
<path d="M61.4433 17.7377L60.3316 17.8687L62.5254 8.73151L63.62 8.60252L67.8572 16.9819L66.7455 17.1129L63.2686 10.0486L63.2001 10.0566L61.4433 17.7377ZM61.4547 14.2681L65.9359 13.7401L66.0456 14.6809L61.5645 15.209L61.4547 14.2681Z" fill="white"/>
<path d="M76.4596 10.782C76.438 10.3431 76.2522 9.99071 75.9022 9.72472C75.5522 9.45874 75.1109 9.30725 74.5783 9.27028C74.1889 9.24324 73.8438 9.28258 73.543 9.3883C73.2452 9.49422 73.007 9.65177 72.8287 9.86093C72.6532 10.0703 72.5558 10.3153 72.5365 10.5959C72.5203 10.8307 72.5623 11.0365 72.6624 11.2132C72.7655 11.3872 72.902 11.5363 73.0718 11.6603C73.2419 11.7814 73.4218 11.8845 73.6116 11.9696C73.8016 12.0519 73.9767 12.1202 74.137 12.1744L75.0139 12.477C75.2388 12.5531 75.488 12.6538 75.7613 12.7792C76.0375 12.9049 76.2982 13.0683 76.5433 13.2694C76.7914 13.4679 76.9903 13.7148 77.1397 14.01C77.2892 14.3052 77.3497 14.659 77.3214 15.0714C77.2887 15.5467 77.1347 15.9676 76.8592 16.334C76.5865 16.7007 76.2048 16.9806 75.7139 17.1738C75.2259 17.3672 74.644 17.4405 73.9682 17.3936C73.3382 17.3498 72.7997 17.2103 72.3527 16.975C71.9085 16.7399 71.5672 16.4313 71.3288 16.0494C71.0932 15.6676 70.9747 15.235 70.9734 14.7515L72.073 14.8278C72.0788 15.162 72.1716 15.4447 72.3514 15.6758C72.5342 15.9043 72.7723 16.082 73.0657 16.2088C73.3621 16.3329 73.685 16.4072 74.0343 16.4314C74.4409 16.4596 74.8106 16.4191 75.1432 16.3099C75.476 16.1977 75.7451 16.0294 75.9504 15.8048C76.1559 15.5774 76.2697 15.3033 76.2917 14.9826C76.3118 14.6905 76.2465 14.4472 76.0959 14.2526C75.9453 14.058 75.7408 13.8942 75.4823 13.7611C75.2239 13.6281 74.943 13.5079 74.6397 13.4005L73.5785 13.0161C72.9049 12.7708 72.3802 12.451 72.0045 12.0566C71.6288 11.6622 71.4614 11.1687 71.5021 10.5759C71.536 10.0834 71.6986 9.66307 71.9901 9.31502C72.2847 8.9643 72.6651 8.70299 73.1315 8.53109C73.601 8.35652 74.1163 8.28871 74.6776 8.32768C75.2446 8.36704 75.7415 8.50369 76.1685 8.73762C76.5957 8.96868 76.9262 9.26784 77.1599 9.63509C77.3964 10.0025 77.5066 10.4087 77.4904 10.8535L76.4596 10.782Z" fill="white"/>
<path d="M82.1617 10.3767L82.3944 9.45846L88.8012 11.0981L88.5685 12.0163L85.8824 11.3289L83.9494 18.9583L82.915 18.6936L84.8479 11.0641L82.1617 10.3767Z" fill="white"/>
<path d="M89.8558 20.9212L93.4715 12.8788L98.3168 15.0794L97.9284 15.9433L94.0553 14.1843L92.8336 16.9017L96.4558 18.5468L96.0674 19.4107L92.4452 17.7656L91.2164 20.4988L95.1523 22.2863L94.7639 23.1502L89.8558 20.9212Z" fill="white"/>
<path d="M107.728 22.2939L108.348 21.5779L113.326 25.932L112.706 26.6481L110.619 24.8225L105.466 30.7723L104.663 30.0693L109.815 24.1195L107.728 22.2939Z" fill="white"/>
<path d="M109.864 35.1387L116.797 29.69L117.453 30.5328L114.365 32.9591L117.252 36.67L120.34 34.2436L120.995 35.0864L114.062 40.535L113.407 39.6923L116.508 37.2553L113.621 33.5444L110.52 35.9814L109.864 35.1387Z" fill="white"/>
<path d="M116.053 43.934L123.874 39.8619L126.312 44.5922L125.472 45.0296L123.523 41.2484L120.88 42.6244L122.703 46.1606L121.863 46.598L120.04 43.0618L117.382 44.4456L119.362 48.2881L118.522 48.7255L116.053 43.934Z" fill="white"/>
<path d="M122.109 60.7277L121.622 58.0505L130.295 56.4565L130.803 59.2523C130.956 60.0938 130.914 60.8458 130.676 61.5083C130.44 62.1703 130.028 62.7203 129.44 63.1582C128.854 63.5956 128.112 63.8969 127.215 64.0619C126.311 64.2279 125.504 64.2099 124.794 64.0078C124.086 63.8052 123.501 63.4283 123.039 62.877C122.579 62.3252 122.27 61.6088 122.109 60.7277ZM122.745 58.9298L123.029 60.4887C123.159 61.206 123.406 61.775 123.768 62.1957C124.131 62.6165 124.588 62.8957 125.141 63.0333C125.695 63.171 126.324 63.1749 127.03 63.0452C127.73 62.9165 128.312 62.6914 128.776 62.3698C129.242 62.0476 129.569 61.6343 129.758 61.1298C129.949 60.6248 129.983 60.0335 129.859 59.3557L129.554 57.6783L122.745 58.9298Z" fill="white"/>
<path d="M131.792 69.0228L122.979 69.3093L122.945 68.2421L131.758 67.9556L131.792 69.0228Z" fill="white"/>
<path d="M122.923 73.7995L131.691 74.7335L131.137 79.9916L130.195 79.8912L130.638 75.6951L127.675 75.3795L127.274 79.1817L126.332 79.0814L126.733 75.2791L122.811 74.8614L122.923 73.7995Z" fill="white"/>
<path d="M121.592 82.7345L130.075 85.1432L128.644 90.2331L127.733 89.9744L128.874 85.9124L126.008 85.0985L124.974 88.7792L124.062 88.5204L125.097 84.8398L121.303 83.7624L121.592 82.7345Z" fill="white"/>
<path d="M118.781 91.3171L126.732 95.1294L124.45 99.9369L123.596 99.5274L125.42 95.6845L122.733 94.3964L121.027 97.9904L120.173 97.5808L121.879 93.9868L119.177 92.6913L117.323 96.5964L116.469 96.1869L118.781 91.3171Z" fill="white"/>
<path d="M114.587 99.2963L121.75 104.438L120.024 106.867C119.625 107.428 119.202 107.821 118.755 108.044C118.31 108.269 117.86 108.349 117.406 108.284C116.952 108.22 116.514 108.036 116.092 107.733C115.67 107.43 115.357 107.075 115.154 106.667C114.95 106.26 114.883 105.81 114.95 105.318C115.021 104.828 115.254 104.304 115.649 103.748L117.046 101.782L117.829 102.345L116.453 104.282C116.18 104.666 116.017 105.015 115.962 105.329C115.906 105.646 115.943 105.93 116.074 106.183C116.205 106.439 116.414 106.671 116.701 106.877C116.987 107.082 117.276 107.209 117.567 107.255C117.858 107.301 118.146 107.248 118.431 107.096C118.717 106.945 118.999 106.675 119.275 106.286L120.362 104.756L113.968 100.167L114.587 99.2963ZM115.401 104.989L110.926 104.449L111.644 103.438L116.099 104.007L115.401 104.989Z" fill="white"/>
<path d="M108.69 106.872L114.848 113.184L111.057 116.919L110.396 116.241L113.426 113.255L111.345 111.123L108.512 113.915L107.85 113.237L110.684 110.445L108.591 108.3L105.512 111.334L104.851 110.656L108.69 106.872Z" fill="white"/>
<path d="M101.154 124.175L96.2659 116.836L97.1232 116.259L104.948 119.339L105.019 119.291L101.181 113.529L102.067 112.933L106.955 120.272L106.098 120.848L98.2495 117.764L98.1781 117.812L102.025 123.588L101.154 124.175Z" fill="white"/>
<path d="M88.6674 126.842L89.655 126.436C89.8291 126.697 90.0331 126.905 90.2667 127.06C90.4977 127.216 90.7465 127.325 91.0131 127.386C91.2781 127.451 91.5505 127.469 91.8304 127.441C92.1102 127.413 92.3855 127.343 92.6563 127.232C93.1501 127.029 93.5466 126.72 93.8457 126.306C94.1422 125.892 94.3096 125.393 94.3479 124.81C94.3835 124.227 94.2574 123.582 93.9696 122.875C93.6818 122.168 93.3221 121.619 92.8904 121.228C92.4562 120.839 91.9891 120.601 91.4891 120.515C90.9866 120.43 90.4884 120.489 89.9946 120.692C89.7238 120.803 89.4788 120.947 89.2595 121.124C89.0403 121.301 88.8582 121.505 88.7133 121.735C88.5668 121.969 88.4657 122.224 88.41 122.498C88.3527 122.776 88.3522 123.068 88.4085 123.374L87.4209 123.78C87.3254 123.332 87.3088 122.902 87.3711 122.492C87.4334 122.082 87.5634 121.701 87.7613 121.349C87.9603 121.001 88.2173 120.692 88.5323 120.423C88.8447 120.155 89.2066 119.936 89.6181 119.767C90.3136 119.481 91.0014 119.397 91.6815 119.514C92.3615 119.632 92.9846 119.941 93.5505 120.44C94.1165 120.94 94.5747 121.621 94.9253 122.482C95.2759 123.343 95.4235 124.152 95.3683 124.907C95.313 125.662 95.0838 126.321 94.6808 126.884C94.2777 127.447 93.7284 127.871 93.0328 128.157C92.6213 128.326 92.2107 128.425 91.801 128.454C91.3886 128.484 90.9893 128.443 90.6032 128.332C90.2181 128.224 89.8603 128.045 89.5296 127.796C89.2001 127.55 88.9127 127.232 88.6674 126.842Z" fill="white"/>
<path d="M82.8378 122.141L84.6034 130.78L79.3917 131.856L79.2021 130.928L83.368 130.068L82.7714 127.149L78.8753 127.953L78.6856 127.025L82.5818 126.221L81.9817 123.285L77.7483 124.159L77.5586 123.231L82.8378 122.141Z" fill="white"/>
<path opacity="0.942" d="M66.5904 72.5742L66.5837 72.6002L66.5809 72.6269C66.2658 75.6167 66.8556 78.376 68.3486 80.8932C65.4192 80.0513 63.2196 78.2586 61.7318 75.5025C59.4228 71.2242 59.5349 66.9911 62.0768 62.7533C62.8647 61.6473 63.8699 60.8857 65.0985 60.4585C67.4401 62.1104 68.4938 64.3452 68.2828 67.2059C67.625 68.9712 67.0608 70.7606 66.5904 72.5742ZM73.2175 68.5346L73.2275 68.5041L73.2319 68.4723C73.6686 65.3373 73.1036 62.4375 71.5386 59.7857C74.4056 60.7164 76.5988 62.4989 78.1335 65.1411C80.4881 69.5393 80.3363 73.8543 77.6713 78.1376C76.9589 79.0398 76.1156 79.7993 75.1401 80.4169C73.7956 79.5927 72.8497 78.5961 72.2797 77.4333C71.6878 76.226 71.4872 74.8114 71.6989 73.1735L73.2175 68.5346Z" stroke="white" stroke-width="0.72"/>
</svg>
