<svg width="124" height="37" viewBox="0 0 124 37" fill="none" xmlns="http://www.w3.org/2000/svg">
<path d="M3.99472 36H3.13072V27.408H3.99472V31.236H8.63872V27.408H9.49072V36H8.63872V32.04H3.99472V36ZM23.8077 31.704C23.8077 34.308 22.1157 36.144 19.7157 36.144C17.3037 36.144 15.6237 34.308 15.6237 31.704C15.6237 29.1 17.3157 27.252 19.7157 27.252C22.1277 27.252 23.8077 29.088 23.8077 31.704ZM22.9197 31.704C22.9197 29.556 21.6117 28.092 19.7157 28.092C17.8197 28.092 16.5237 29.556 16.5237 31.704C16.5237 33.852 17.8197 35.316 19.7157 35.316C21.6117 35.316 22.9197 33.84 22.9197 31.704ZM29.8743 33.012V27.408H30.7383V32.976C30.7383 34.488 31.5663 35.304 33.0663 35.304C34.5303 35.304 35.3583 34.464 35.3583 32.976V27.408H36.2223V33.012C36.2223 34.956 35.0223 36.144 33.0663 36.144C31.0743 36.144 29.8743 34.968 29.8743 33.012ZM42.2986 29.64C42.2986 28.2 43.4506 27.252 45.1786 27.252C46.7266 27.252 47.7466 28.116 47.8786 29.556H47.0026C46.9066 28.584 46.2466 28.032 45.1666 28.032C43.9546 28.032 43.1626 28.656 43.1626 29.628C43.1626 30.384 43.6066 30.864 44.5066 31.092L45.9826 31.452C47.3266 31.776 48.0226 32.544 48.0226 33.708C48.0226 35.196 46.8706 36.144 45.0946 36.144C43.4266 36.144 42.2986 35.268 42.1906 33.864H43.0786C43.1266 34.764 43.9186 35.352 45.0946 35.352C46.3546 35.352 47.1586 34.74 47.1586 33.756C47.1586 32.988 46.7266 32.484 45.8026 32.268L44.3506 31.908C43.0066 31.584 42.2986 30.816 42.2986 29.64ZM59.2843 36H54.1363V27.408H59.2723V28.2H55.0003V31.296H58.8763V32.076H55.0003V35.208H59.2843V36ZM79.1235 36L78.3555 35.112C77.6835 35.784 76.7475 36.156 75.6195 36.156C73.8075 36.156 72.6315 35.232 72.6315 33.816C72.6315 32.724 73.2795 31.92 74.8275 31.08C74.0475 30.168 73.7355 29.652 73.7355 29.016C73.7355 27.984 74.5155 27.264 75.6795 27.264C76.7835 27.264 77.5395 27.936 77.5395 28.944C77.5395 29.796 77.0955 30.456 75.9555 31.224L78.2955 33.924C78.5355 33.42 78.6675 32.796 78.6675 32.076H79.4715C79.4715 33.036 79.2435 33.864 78.8235 34.524L80.1075 36H79.1235ZM75.5115 30.708L75.5235 30.72C76.3635 30.192 76.7475 29.64 76.7475 28.968C76.7475 28.344 76.3395 27.96 75.6675 27.96C74.9715 27.96 74.5395 28.368 74.5395 29.016C74.5395 29.448 74.7315 29.808 75.5115 30.708ZM73.4835 33.768C73.4835 34.812 74.2995 35.436 75.6675 35.436C76.6155 35.436 77.3595 35.136 77.8755 34.56L75.2595 31.572C73.9635 32.292 73.4835 32.892 73.4835 33.768ZM96.7749 36.132C94.3749 36.132 92.7429 34.344 92.7429 31.704C92.7429 29.064 94.3989 27.264 96.8229 27.264C98.6709 27.264 100.123 28.38 100.471 30.084H99.5469C99.1869 28.848 98.1309 28.092 96.7869 28.092C94.9029 28.092 93.6429 29.532 93.6429 31.704C93.6429 33.864 94.9029 35.304 96.7869 35.304C98.1429 35.304 99.2229 34.572 99.5949 33.42H100.519C100.123 35.04 98.6229 36.132 96.7749 36.132ZM114.229 31.704C114.229 34.308 112.537 36.144 110.137 36.144C107.725 36.144 106.045 34.308 106.045 31.704C106.045 29.1 107.737 27.252 110.137 27.252C112.549 27.252 114.229 29.088 114.229 31.704ZM113.341 31.704C113.341 29.556 112.033 28.092 110.137 28.092C108.241 28.092 106.945 29.556 106.945 31.704C106.945 33.852 108.241 35.316 110.137 35.316C112.033 35.316 113.341 33.84 113.341 31.704ZM120.345 36.132C119.937 36.132 119.589 35.796 119.589 35.4C119.589 34.992 119.937 34.644 120.345 34.644C120.753 34.644 121.101 34.992 121.101 35.4C121.101 35.796 120.753 36.132 120.345 36.132Z" fill="white"/>
<path d="M13.5781 3.24219V5.91406H5.1875V10.1328H13.1797V12.9102H5.15234V17.3047H13.7422V20H2.10547V3.24219H13.5781ZM16.3203 19.2969V16.4844C18 17.1094 19.8984 17.4219 22.0156 17.4219C24.5859 17.4219 25.8711 16.5625 25.8711 14.8438C25.8711 13.5938 25.082 12.9688 23.5039 12.9688H20.8789C17.4492 12.9688 15.7344 11.4062 15.7344 8.28125C15.7344 4.84375 18.1758 3.125 23.0586 3.125C24.9336 3.125 26.7109 3.39844 28.3906 3.94531V6.75781C26.7109 6.13281 24.9336 5.82031 23.0586 5.82031C20.2461 5.82031 18.8398 6.64062 18.8398 8.28125C18.8398 9.53125 19.5195 10.1562 20.8789 10.1562H23.5039C27.1523 10.1562 28.9766 11.7188 28.9766 14.8438C28.9766 18.3594 26.6562 20.1172 22.0156 20.1172C19.8984 20.1172 18 19.8438 16.3203 19.2969ZM31.6133 20V3.24219H39.1133C42.5352 3.24219 44.2461 4.81641 44.2461 7.96484C44.2461 11.3789 41.9062 13.4453 37.2266 14.1641L36.7812 11.3984C39.5938 10.8906 41 9.77734 41 8.05859C41 6.66797 40.3047 5.97266 38.9141 5.97266H34.7188V20H31.6133ZM46.3086 19.9766V3.24219H53.9258C57.3477 3.24219 59.0586 4.73828 59.0586 7.73047C59.0586 9.75391 57.7266 11.4297 55.0625 12.7578L60.3711 20H56.457L51.3594 12.6992V11.2812C54.3281 10.7734 55.8125 9.62109 55.8125 7.82422C55.8125 6.58984 55.1172 5.97266 53.7266 5.97266H49.4727V19.9766H46.3086ZM73.3203 3.24219V5.91406H64.9297V10.1328H72.9219V12.9102H64.8945V17.3047H73.4844V20H61.8477V3.24219H73.3203ZM76.0625 19.2969V16.4844C77.7422 17.1094 79.6406 17.4219 81.7578 17.4219C84.3281 17.4219 85.6133 16.5625 85.6133 14.8438C85.6133 13.5938 84.8242 12.9688 83.2461 12.9688H80.6211C77.1914 12.9688 75.4766 11.4062 75.4766 8.28125C75.4766 4.84375 77.918 3.125 82.8008 3.125C84.6758 3.125 86.4531 3.39844 88.1328 3.94531V6.75781C86.4531 6.13281 84.6758 5.82031 82.8008 5.82031C79.9883 5.82031 78.582 6.64062 78.582 8.28125C78.582 9.53125 79.2617 10.1562 80.6211 10.1562H83.2461C86.8945 10.1562 88.7188 11.7188 88.7188 14.8438C88.7188 18.3594 86.3984 20.1172 81.7578 20.1172C79.6406 20.1172 77.7422 19.8438 76.0625 19.2969ZM91.0625 19.2969V16.4844C92.7422 17.1094 94.6406 17.4219 96.7578 17.4219C99.3281 17.4219 100.613 16.5625 100.613 14.8438C100.613 13.5938 99.8242 12.9688 98.2461 12.9688H95.6211C92.1914 12.9688 90.4766 11.4062 90.4766 8.28125C90.4766 4.84375 92.918 3.125 97.8008 3.125C99.6758 3.125 101.453 3.39844 103.133 3.94531V6.75781C101.453 6.13281 99.6758 5.82031 97.8008 5.82031C94.9883 5.82031 93.582 6.64062 93.582 8.28125C93.582 9.53125 94.2617 10.1562 95.6211 10.1562H98.2461C101.895 10.1562 103.719 11.7188 103.719 14.8438C103.719 18.3594 101.398 20.1172 96.7578 20.1172C94.6406 20.1172 92.7422 19.8438 91.0625 19.2969ZM108.992 11.5742C108.992 15.4727 110.723 17.4219 114.184 17.4219C117.559 17.4219 119.246 15.4727 119.246 11.5742C119.246 7.73828 117.559 5.82031 114.184 5.82031C110.723 5.82031 108.992 7.73828 108.992 11.5742ZM105.77 11.6445C105.77 5.96484 108.574 3.125 114.184 3.125C119.707 3.125 122.469 5.96484 122.469 11.6445C122.469 17.293 119.707 20.1172 114.184 20.1172C108.824 20.1172 106.02 17.293 105.77 11.6445Z" fill="white"/>
</svg>
